<?xml version="1.0" encoding="UTF-8"?>
<svg id="Layer_1" data-name="Layer 1" xmlns="http://www.w3.org/2000/svg" viewBox="0 0 158.63 66.29">
  <defs>
    <style>
      .cls-1 {
        fill: #d6857f;
      }

      .cls-1, .cls-2 {
        stroke-width: 0px;
      }

      .cls-2 {
        fill: #231f20;
      }
    </style>
  </defs>
  <path class="cls-2" d="m51.75,51.55c.08-.14.16-.27.25-.38-.02,0-.03,0-.05,0,2.84-4.2,8.2-10.93,16.09-20.19s14.45-16.27,19.69-21.01L98.71,0c-3.31.13-6.83.97-10.57,2.52-3.74,1.55-7.92,3.89-12.56,7.01-4.64,3.12-12.36,9.69-23.16,19.69-1.48-4.53-3.65-8.18-6.48-10.96-2.84-2.77-5.99-4.16-9.45-4.16-3.05,0-5.59,1.33-7.64,4-2.04,2.67-3.07,5.93-3.07,9.79,0,6.28,2.9,12.15,8.71,17.62-2.16,2.1-5.37,4.21-9.61,6.34-4.25,2.13-8.29,3.19-12.15,3.19-3.23,0-6.08-.78-8.55-2.33-2.47-1.56-3.71-3.39-3.71-5.49,0-.91.31-1.74.94-2.49l.16.04c.1,2.14.98,3.2,2.62,3.2.73,0,1.35-.25,1.86-.74.51-.49.76-1.09.76-1.8,0-.81-.3-1.5-.9-2.09-.6-.59-1.33-.88-2.19-.88-.94,0-1.79.38-2.56,1.15s-1.15,1.83-1.15,3.18c0,2.47,1.27,4.53,3.81,6.17s5.34,2.46,8.42,2.46c7.13,0,14.66-3.21,22.58-9.62,3.75,2.69,8.03,4.45,12.85,5.29l-2.46,3.52h4.26l2.19-3.05s.07,0,.11-.01Zm-25.42-22.98c0-3.68,1.1-6.73,3.3-9.15s4.93-3.64,8.21-3.64,6.04,1.36,8.68,4.08c2.64,2.72,4.49,5.95,5.56,9.68-1.56,1.69-4.31,4.35-8.26,7.98s-6.95,6.22-9,7.78c-5.65-5.11-8.48-10.69-8.48-16.74Zm21.6,22.21c-2.14-.26-4.47-.91-6.99-1.94-2.53-1.03-4.47-2.11-5.82-3.24,4.88-4.01,10.58-9.24,17.07-15.68.34,1.57.51,3.05.51,4.46,0,4.83-1.59,10.29-4.77,16.4Zm1.68-2.73c2.32-5.25,3.48-9.83,3.48-13.75,0-1.59-.2-3.13-.59-4.62,10.88-10.48,19.74-17.83,26.56-22.07,6.82-4.24,12.76-6.59,17.81-7.06l.08.27c-5.29,2.87-12.72,9.1-22.3,18.71-9.58,9.61-17.83,19.17-24.73,28.67l-.31-.16Z"/>
  <path class="cls-1" d="m89.73,24.73l-.8.62-7.53,7.87h-.2c-.25.39-.6.7-1,.96-.03.04-.05.08-.08.12-.58.84-1.24,1.55-1.99,2.23l.04.03-8.77,9.64c-.54.57-.96,1.07-1.4,1.61-.72.88-1.27,1.61-2.16,2.72-1.94,2.45-12.12,15.54-11.7,15.77.35.19,13.15-14.22,14.1-15.09.34-.37.67-.9,1.48-1.65l14.96-15.51.35-.38c.05-.05.11-.1.16-.16.04-.04.08-.08.13-.12.01,0,.02-.02.03-.03.05-.04.1-.07.14-.11.01-.02.02-.03.03-.05.12-.2.28-.36.46-.5l6.24-6.9c.25-.28.26-.73-.02-.98-.7-.63-1.74-.67-2.48-.09Zm-1.08,3.99s-6.88,7.25-8.07,7.78c-1.2.52,0-1.38,0-1.38,0,0,6.11-7.15,7.44-7.51,1.33-.37.64,1.12.64,1.12Z"/>
  <path class="cls-2" d="m97.85,53.67v-.35c.18-.88,1.64-2.96,4.38-6.21l3.95-4.69,3.12-3.44c1.61-1.74,2.72-2.97,3.32-3.67,2.63-.75,6.41-2.62,11.33-5.59s9.05-5.94,12.38-8.93c3.33-2.98,5-5.23,5-6.74,0-.52-.24-1-.72-1.43-.48-.43-1.07-.64-1.78-.64-1.93,0-4.33,1.02-7.21,3.07-2.88,2.04-6.35,4.92-10.41,8.61-4.06,3.7-8.31,7.92-12.73,12.66-.39.39-.87.72-1.43.98-.56.26-1.33.74-2.3,1.45s-4.33,3.5-10.06,8.4c-3.33,2.87-6.24,4.89-8.73,6.07-2.49,1.19-4.41,1.78-5.76,1.78-.62,0-1.17-.2-1.64-.61s-.7-.84-.7-1.31c0-.99,1.33-2.81,3.99-5.47,3.08-.34,5.89-1.21,8.42-2.62,2.53-1.41,3.8-2.75,3.8-4.02,0-.34-.15-.62-.45-.86-.3-.23-.66-.35-1.07-.35-2.27,0-5.41,1.3-9.43,3.91-4.02,2.6-6.04,5.38-6.04,8.32,0,2.19,1.06,3.28,3.2,3.28,1.53,0,3.59-.62,6.16-1.86,2.57-1.24,5.42-3.24,8.54-6l7.73-6.41c1.82-1.59,3.2-2.59,4.14-3.01l.04.23c-.86.57-2.79,2.68-5.78,6.33-3,3.65-4.49,6.43-4.49,8.36,0,.7.24,1.31.72,1.82.48.51,1.05.76,1.7.76,2.13,0,5.57-2.02,10.31-6.05l2.38-2.03-.27-.27c-5.86,5.21-9.91,7.81-12.15,7.81-.96,0-1.45-.43-1.45-1.29Zm24.94-29.57c4.6-4.77,8.01-7.9,10.23-9.39,2.23-1.5,4.12-2.25,5.68-2.25.6,0,1.09.16,1.48.49.39.33.59.7.59,1.11,0,1.38-1.59,3.54-4.77,6.46-3.18,2.93-7.26,5.86-12.25,8.79-4.99,2.93-8.52,4.73-10.61,5.41,1.82-2.32,5.03-5.86,9.63-10.62Zm-36.13,19.26c1.67-1.3,2.92-2.15,3.74-2.57.82-.42,1.57-.63,2.25-.63.57,0,.86.25.86.75,0,.71-.66,1.6-1.98,2.67s-2.97,1.95-4.95,2.63c-1.98.68-3.37,1.02-4.15,1.02,1.15-1.28,2.56-2.57,4.23-3.87Z"/>
  <path class="cls-2" d="m124.45,47.15c-3.8,3.31-6.46,5.38-7.99,6.23-1.52.85-2.7,1.27-3.54,1.27-.39,0-.72-.13-.98-.39-.26-.26-.39-.56-.39-.9v-.27c.16-.47.47-.94.94-1.41l12.39-12.19h-3.79c-5.16,4.01-8.38,6.56-9.66,7.66l.27.27,3.87-3.2,3.6-2.73.08.2c-4.33,4.17-6.83,6.8-7.49,7.91-.67,1.11-1,2.16-1,3.14,0,.7.2,1.26.61,1.68.4.42.93.62,1.58.62,1.92,0,5.53-2.27,10.83-6.82.21-.34.45-.67.73-1l-.07-.07Z"/>
  <path class="cls-2" d="m128.04,31.02c-.44.44-.66.91-.66,1.41,0,.39.13.72.39,1,.26.27.57.41.93.41.52,0,1-.2,1.47-.59.46-.39.7-.87.7-1.45,0-.39-.13-.73-.39-1.02-.26-.29-.58-.43-.97-.43-.54,0-1.03.22-1.47.66Z"/>
  <path class="cls-2" d="m158.36,47.15c-3.23,2.83-5.89,4.82-7.97,5.99-2.08,1.17-3.62,1.75-4.61,1.75-.83,0-1.25-.37-1.25-1.1,0-.29.1-.59.31-.9.21-.31,1.08-1.27,2.61-2.88s3.08-3.12,4.62-4.54c1.55-1.42,2.57-2.62,3.06-3.58l-2.07-2.3c-1.16.52-2.25.78-3.25.78-.7,0-1.23-.12-1.59-.35s-.54-.47-.54-.7c0-.03.01-.09.04-.2.31.21.6.31.88.31.41,0,.76-.15,1.04-.45.28-.3.42-.66.42-1.07s-.14-.77-.41-1.05c-.27-.29-.58-.43-.92-.43-.47,0-.89.21-1.27.62-.38.42-.57.9-.57,1.45,0,.86.42,1.54,1.25,2.03-.39.42-1.06,1-1.99,1.76l-5.94,4.88c-3.33,2.87-6.24,4.89-8.73,6.07-2.49,1.19-4.41,1.78-5.76,1.78-.62,0-1.17-.2-1.64-.61s-.7-.84-.7-1.31c0-.99,1.33-2.81,3.99-5.47,3.08-.34,5.89-1.21,8.42-2.62,2.53-1.41,3.8-2.75,3.8-4.02,0-.34-.15-.62-.45-.86-.3-.23-.66-.35-1.07-.35-2.27,0-5.41,1.3-9.43,3.91-1.78,1.15-3.14,2.33-4.13,3.55l.2.2c-.32.28-.62.54-.93.8-.77,1.22-1.18,2.48-1.18,3.77,0,2.19,1.06,3.28,3.2,3.28,1.53,0,3.59-.62,6.16-1.86,2.57-1.24,5.42-3.24,8.54-6l8.21-6.72c.29.08.56.12.82.12.94,0,1.96-.2,3.05-.59l.16.27c-.81,1.02-2.27,2.55-4.38,4.61-2.11,2.06-3.49,3.58-4.13,4.57-.64.99-.96,1.98-.96,2.97,0,.78.21,1.41.64,1.89s1.02.72,1.78.72c2.55,0,6.86-2.62,12.93-7.85l-.27-.27Zm-26.15-3.79c1.67-1.3,2.92-2.15,3.74-2.57.82-.42,1.57-.63,2.25-.63.57,0,.86.25.86.75,0,.71-.66,1.6-1.98,2.67s-2.97,1.95-4.95,2.63c-1.98.68-3.37,1.02-4.15,1.02,1.15-1.28,2.56-2.57,4.23-3.87Z"/>
  <path class="cls-2" d="m47.84,50.84c8.94-2.38,15.13-9.71,22.91-14.23,4.36-2.54,9.27-4.18,14.34-3.34,4.69.78,8.91,3.26,13.59,4.11s9.84-.08,14.06-2.54c.11-.06.01-.24-.1-.17-4.38,2.55-9.58,3.45-14.54,2.4-4.57-.97-8.74-3.36-13.38-4.05-9.06-1.33-16.66,4.91-23.37,10.05-4.14,3.17-8.46,6.23-13.57,7.59-.12.03-.07.23.05.19h0Z"/>
</svg>